HIERARCHY
ROOT Hips
{
    OFFSET   0.000000   0.000000   0.000000
    CHANNELS 6 Xposition Yposition Zposition Zrotation Xrotation Yrotation
    JOINT Chest
    {
        OFFSET   0.000000   8.007230   0.000000
        CHANNELS 3 Zrotation Xrotation Yrotation
        JOINT Chest2
        {
            OFFSET   0.000000  22.077100   0.000000
            CHANNELS 3 Zrotation Xrotation Yrotation
            JOINT Neck
            {
                OFFSET   0.000000  23.254700   0.000000
                CHANNELS 3 Zrotation Xrotation Yrotation
                JOINT Head
                {
                    OFFSET   0.000010  14.370000   1.956610
                    CHANNELS 3 Zrotation Xrotation Yrotation
                    End Site
                    {
                        OFFSET   0.000000  19.566000   0.000000
                    }
                }
            }
            JOINT LeftCollar
            {
                OFFSET   3.911900  19.017000  -0.467063
                CHANNELS 3 Zrotation Xrotation Yrotation
                JOINT LeftShoulder
                {
                    OFFSET  10.383700   0.000000   0.000000
                    CHANNELS 3 Zrotation Xrotation Yrotation
                    JOINT LeftElbow
                    {
                        OFFSET  26.662100   0.001671   0.000522
                        CHANNELS 3 Zrotation Xrotation Yrotation
                        JOINT LeftWrist
                        {
                            OFFSET  28.869000   0.000037  -0.000114
                            CHANNELS 3 Zrotation Xrotation Yrotation
                            JOINT LeftFinger0
                            {
                                OFFSET   2.044650  -2.323450   3.252850
                                CHANNELS 3 Zrotation Xrotation Yrotation
                                JOINT LeftFinger01
                                {
                                    OFFSET   3.088140   0.000000   0.000000
                                    CHANNELS 3 Zrotation Xrotation Yrotation
                                    JOINT LeftFinger02
                                    {
                                        OFFSET   2.639460   0.000000   0.000000
                                        CHANNELS 3 Zrotation Xrotation Yrotation
                                        End Site
                                        {
                                            OFFSET   2.582190   0.000000   0.000000
                                        }
                                    }
                                }
                            }
                            JOINT LeftFinger1
                            {
                                OFFSET   8.364480   0.000000   3.252850
                                CHANNELS 3 Zrotation Xrotation Yrotation
                                JOINT LeftFinger11
                                {
                                    OFFSET   4.646930   0.000000   0.000000
                                    CHANNELS 3 Zrotation Xrotation Yrotation
                                    JOINT LeftFinger12
                                    {
                                        OFFSET   2.323470   0.000000   0.000000
                                        CHANNELS 3 Zrotation Xrotation Yrotation
                                        End Site
                                        {
                                            OFFSET   2.273050   0.000000   0.000000
                                        }
                                    }
                                }
                            }
                            JOINT LeftFinger2
                            {
                                OFFSET   8.364490   0.000016   1.078090
                                CHANNELS 3 Zrotation Xrotation Yrotation
                                JOINT LeftFinger21
                                {
                                    OFFSET   5.111620   0.000000   0.000000
                                    CHANNELS 3 Zrotation Xrotation Yrotation
                                    JOINT LeftFinger22
                                    {
                                        OFFSET   2.788150   0.000013   0.000000
                                        CHANNELS 3 Zrotation Xrotation Yrotation
                                        End Site
                                        {
                                            OFFSET   2.727660   0.000000   0.000000
                                        }
                                    }
                                }
                            }
                            JOINT LeftFinger3
                            {
                                OFFSET   7.899780   0.000016  -1.078090
                                CHANNELS 3 Zrotation Xrotation Yrotation
                                JOINT LeftFinger31
                                {
                                    OFFSET   4.646930   0.000000   0.000000
                                    CHANNELS 3 Zrotation Xrotation Yrotation
                                    JOINT LeftFinger32
                                    {
                                        OFFSET   2.323470   0.000000   0.000000
                                        CHANNELS 3 Zrotation Xrotation Yrotation
                                        End Site
                                        {
                                            OFFSET   2.273050   0.000000   0.000000
                                        }
                                    }
                                }
                            }
                            JOINT LeftFinger4
                            {
                                OFFSET   7.435080   0.000000  -3.252850
                                CHANNELS 3 Zrotation Xrotation Yrotation
                                JOINT LeftFinger41
                                {
                                    OFFSET   3.717550   0.000000   0.000000
                                    CHANNELS 3 Zrotation Xrotation Yrotation
                                    JOINT LeftFinger42
                                    {
                                        OFFSET   1.858760   0.000000   0.000000
                                        CHANNELS 3 Zrotation Xrotation Yrotation
                                        End Site
                                        {
                                            OFFSET   1.818440   0.000000   0.000000
                                        }
                                    }
                                }
                            }
                        }
                    }
                }
            }
            JOINT RightCollar
            {
                OFFSET  -3.911900  19.017000  -0.467064
                CHANNELS 3 Zrotation Xrotation Yrotation
                JOINT RightShoulder
                {
                    OFFSET -10.383700   0.000000   0.000000
                    CHANNELS 3 Zrotation Xrotation Yrotation
                    JOINT RightElbow
                    {
                        OFFSET -26.662100   0.001633   0.000260
                        CHANNELS 3 Zrotation Xrotation Yrotation
                        JOINT RightWrist
                        {
                            OFFSET -28.869000  -0.000045  -0.000080
                            CHANNELS 3 Zrotation Xrotation Yrotation
                            JOINT RightFinger0
                            {
                                OFFSET  -2.044660  -2.323490   3.252850
                                CHANNELS 3 Zrotation Xrotation Yrotation
                                JOINT RightFinger01
                                {
                                    OFFSET  -3.088140   0.000000   0.000000
                                    CHANNELS 3 Zrotation Xrotation Yrotation
                                    JOINT RightFinger02
                                    {
                                        OFFSET  -2.639450   0.000000   0.000000
                                        CHANNELS 3 Zrotation Xrotation Yrotation
                                        End Site
                                        {
                                            OFFSET  -2.582190   0.000000   0.000000
                                        }
                                    }
                                }
                            }
                            JOINT RightFinger1
                            {
                                OFFSET  -8.364480   0.000000   3.252850
                                CHANNELS 3 Zrotation Xrotation Yrotation
                                JOINT RightFinger11
                                {
                                    OFFSET  -4.646920   0.000000   0.000000
                                    CHANNELS 3 Zrotation Xrotation Yrotation
                                    JOINT RightFinger12
                                    {
                                        OFFSET  -2.323470   0.000000   0.000000
                                        CHANNELS 3 Zrotation Xrotation Yrotation
                                        End Site
                                        {
                                            OFFSET  -2.273050   0.000000   0.000000
                                        }
                                    }
                                }
                            }
                            JOINT RightFinger2
                            {
                                OFFSET  -8.364480   0.000000   1.078090
                                CHANNELS 3 Zrotation Xrotation Yrotation
                                JOINT RightFinger21
                                {
                                    OFFSET  -5.111610   0.000000   0.000000
                                    CHANNELS 3 Zrotation Xrotation Yrotation
                                    JOINT RightFinger22
                                    {
                                        OFFSET  -2.788160   0.000000   0.000000
                                        CHANNELS 3 Zrotation Xrotation Yrotation
                                        End Site
                                        {
                                            OFFSET  -2.727660   0.000000   0.000000
                                        }
                                    }
                                }
                            }
                            JOINT RightFinger3
                            {
                                OFFSET  -7.899780   0.000000  -1.078090
                                CHANNELS 3 Zrotation Xrotation Yrotation
                                JOINT RightFinger31
                                {
                                    OFFSET  -4.646930   0.000000   0.000000
                                    CHANNELS 3 Zrotation Xrotation Yrotation
                                    JOINT RightFinger32
                                    {
                                        OFFSET  -2.323470   0.000000   0.000000
                                        CHANNELS 3 Zrotation Xrotation Yrotation
                                        End Site
                                        {
                                            OFFSET  -2.273050   0.000000   0.000000
                                        }
                                    }
                                }
                            }
                            JOINT RightFinger4
                            {
                                OFFSET  -7.435090   0.000000  -3.252850
                                CHANNELS 3 Zrotation Xrotation Yrotation
                                JOINT RightFinger41
                                {
                                    OFFSET  -3.717550   0.000000   0.000000
                                    CHANNELS 3 Zrotation Xrotation Yrotation
                                    JOINT RightFinger42
                                    {
                                        OFFSET  -1.858760   0.000000   0.000000
                                        CHANNELS 3 Zrotation Xrotation Yrotation
                                        End Site
                                        {
                                            OFFSET  -1.818440   0.000000   0.000000
                                        }
                                    }
                                }
                            }
                        }
                    }
                }
            }
        }
    }
    JOINT LeftHip
    {
        OFFSET   9.782990   0.000000   0.000000
        CHANNELS 3 Zrotation Xrotation Yrotation
        JOINT LeftKnee
        {
            OFFSET  -0.000063 -41.789100   0.001657
            CHANNELS 3 Zrotation Xrotation Yrotation
            JOINT LeftAnkle
            {
                OFFSET   0.000078 -41.133200  -0.000113
                CHANNELS 3 Zrotation Xrotation Yrotation
                JOINT LeftToe
                {
                    OFFSET   0.000000  -6.358970  14.674500
                    CHANNELS 3 Zrotation Xrotation Yrotation
                    End Site
                    {
                        OFFSET   0.000000   0.000000   3.913200
                    }
                }
            }
        }
    }
    JOINT RightHip
    {
        OFFSET  -9.782990   0.000000   0.000000
        CHANNELS 3 Zrotation Xrotation Yrotation
        JOINT RightKnee
        {
            OFFSET   0.000053 -41.789200   0.000277
            CHANNELS 3 Zrotation Xrotation Yrotation
            JOINT RightAnkle
            {
                OFFSET   0.000030 -41.133200  -0.000150
                CHANNELS 3 Zrotation Xrotation Yrotation
                JOINT RightToe
                {
                    OFFSET   0.000000  -6.358960  14.674500
                    CHANNELS 3 Zrotation Xrotation Yrotation
                    End Site
                    {
                        OFFSET   0.000000   0.000000   3.913200
                    }
                }
            }
        }
    }
}
MOTION
Frames: 5
Frame Time:   0.016667
  4.238420  89.484100  -2.103830  -3.810170 -12.658200  -5.809740   0.327439   7.388490   0.682061   0.572525  14.780300   1.338050   0.942527  -0.844092   0.007855   1.541020  -1.710130   3.435300  -5.375540  -1.923280   2.700750 -71.285200  18.824700  -4.055240  -0.740406  -0.917269 -19.136500  11.236100  -4.911320   4.169720  42.410500  39.082700 -71.430600 -31.888600   0.000000   0.000076 -10.944300   0.001543   0.000000 -30.700600   5.335340  -8.900750 -25.457500   0.008204   0.000827 -17.820200   0.011864   0.000461 -28.303300  -1.495580   2.787980 -34.510400  -0.000699  -0.001167 -22.983900   0.011033  -0.000830 -27.850500  -1.473530   2.799780 -31.252500  -0.009923   0.000361 -20.814200   0.000567   0.000217 -28.872300  -1.523250   2.773020 -43.350000  -0.004773   0.000781 -28.880500  -0.005994  -0.009951  12.551600   0.373339   8.360050  66.349000   6.977070  -3.519350  -1.587360  -7.940000  14.049900 -13.414600  -0.128631   3.070410 -38.814400  35.547800  66.459600  34.155300  -0.002092  -0.006046  12.073100   0.002954  -0.002938  33.230200  10.956300  16.178500  28.466200  -0.002322   0.001355  19.926300  -0.004192   0.005647  33.018600   1.537800   2.364550  49.575500  -0.008433  -0.000161  33.017300   0.001775   0.003386  32.820300   1.529590   2.369900  49.277900   0.000000   0.000584  32.819100  -0.002286   0.000368  44.344000  -2.447110  -2.496800  66.595800  -0.000702  -0.000493  44.352800   0.003346  -0.000373   0.527347  14.237600   6.759820   0.104782  -0.000797   3.289080  -0.296856  -2.214580   0.578911  -0.000000   0.000000  -0.000000   2.970020   8.804270   6.784510  -3.909210   9.419710  -7.764010   1.301750  -5.668130  -4.895860   0.000000   0.000000  -0.000000
  4.271820  89.484000  -2.103920  -3.814430 -12.681800  -5.819470   0.331661   7.391500   0.684987   0.580672  14.786400   1.343400   0.928259  -0.812429   0.007861   1.521070  -1.645940   3.116490  -5.373520  -1.935690   2.700770 -71.296600  18.847800  -4.076200  -0.720684  -0.919940 -19.147200  11.247100  -4.925350   4.172520  42.420300  39.089900 -71.448600 -31.888600   0.000000   0.000068 -10.944300   0.001549   0.000000 -30.702000   5.339810  -8.906650 -25.459500   0.008205   0.000833 -17.821600   0.011863   0.000464 -28.303400  -1.495590   2.781570 -34.516300  -0.000707  -0.001167 -22.987800   0.011037  -0.000823 -27.850600  -1.473540   2.793350 -31.255400  -0.009929   0.000366 -20.816100   0.000563   0.000217 -28.872500  -1.523260   2.766540 -43.355300  -0.004773   0.000780 -28.880500  -0.005994  -0.009952  12.558500   0.342327   8.373600  66.279600   6.976290  -3.470950  -1.654160  -7.920750  14.026600 -13.403800  -0.119485   3.101120 -38.821700  35.553600  66.450400  34.155800  -0.002093  -0.006080  12.073900   0.002939  -0.002957  33.229300  10.956300  16.178900  28.465500  -0.002219   0.001285  19.925800  -0.004212   0.005590  33.011200   1.536430   2.362780  49.564300  -0.008408  -0.000226  33.009900   0.001750   0.003329  32.815300   1.528330   2.368060  49.270600   0.000049   0.000503  32.814200  -0.002321   0.000284  44.331800  -2.442960  -2.495710  66.577400  -0.000605  -0.000551  44.340500   0.003280  -0.000413   0.509111  14.287400   6.760500   0.095402  -0.027476   3.279070  -0.283287  -2.209050   0.596278   0.000000   0.000000   0.000000   2.955760   8.817240   6.766230  -3.923380   9.442230  -7.759160   1.322880  -5.676220  -4.873630  -0.000000   0.000000   0.000000
  4.324850  89.483900  -2.104020  -3.822060 -12.723400  -5.836250   0.338472   7.398110   0.691798   0.593506  14.799800   1.356280   0.903853  -0.762691   0.007869   1.485910  -1.545160   2.489170  -5.369050  -1.955060   2.700800 -71.313300  18.889300  -4.114460  -0.689401  -0.926352 -19.157900  11.262600  -4.948980   4.181300  42.422600  39.097100 -71.466700 -31.888600   0.000000   0.000059 -10.944300   0.001554  -0.000000 -30.707300   5.344290  -8.912550 -25.465100   0.008209   0.000846 -17.825600   0.011862   0.000470 -28.303500  -1.495600   2.775150 -34.527000  -0.000722  -0.001164 -22.995000   0.011047  -0.000814 -27.850700  -1.473550   2.786910 -31.262700  -0.009946   0.000376 -20.821000   0.000553   0.000217 -28.872700  -1.523270   2.760060 -43.364200  -0.004775   0.000779 -28.880500  -0.005995  -0.009954  12.575000   0.279147   8.400990  66.172200   6.968780  -3.403820  -1.762080  -7.877420  14.002400 -13.382100  -0.095524   3.131830 -38.822400  35.550500  66.426500  34.159400  -0.002102  -0.006162  12.079700   0.002901  -0.002999  33.228400  10.956300  16.179300  28.464800  -0.002021   0.001154  19.925300  -0.004259   0.005479  32.986000   1.526800   2.350400  49.526100  -0.008355  -0.000348  32.984400   0.001691   0.003214  32.810900   1.519510   2.355160  49.263200   0.000138   0.000369  32.809300  -0.002416   0.000154  44.309700  -2.435490  -2.492650  66.544000  -0.000421  -0.000649  44.318300   0.003145  -0.000476   0.479844  14.356700   6.761780   0.082848  -0.054156   3.269010  -0.262984  -2.203510   0.623223  -0.000000   0.000000  -0.000000   2.934910   8.838050   6.727570  -3.948430   9.483270  -7.748940   1.355380  -5.690430  -4.831090   0.000000   0.000000  -0.000000
  4.361970  89.483900  -2.101700  -3.830720 -12.761500  -5.851620   0.343645   7.406170   0.701091   0.602635  14.816000   1.374410   0.883194  -0.728361   0.007870   1.452200  -1.475860   1.797220  -5.362500  -1.967160   2.698400 -71.327200  18.928200  -4.153840  -0.667306  -0.935186 -19.154700  11.269500  -4.969960   4.199560  42.408300  39.094800 -71.461500 -31.906600   0.000000   0.000063 -10.953300   0.001548  -0.000000 -30.721500   5.334530  -8.891470 -25.475400   0.008216   0.000862 -17.832800   0.011862   0.000478 -28.302400  -1.507310   2.796760 -34.537600  -0.000735  -0.001152 -23.002000   0.011064  -0.000808 -27.849500  -1.485130   2.808580 -31.274400  -0.009973   0.000387 -20.828800   0.000537   0.000228 -28.875600  -1.535390   2.781440 -43.371300  -0.004776   0.000776 -28.884100  -0.005993  -0.009949  12.602800   0.202748   8.442870  66.103700   6.956820  -3.377400  -1.834990  -7.819510  14.028000 -13.357800  -0.045410   3.096060 -38.718400  35.461600  66.353800  34.220200  -0.002125  -0.006280  12.111800   0.002839  -0.003054  33.293500  10.963200  16.151100  28.516600  -0.001750   0.000982  19.961600  -0.004326   0.005337  32.941300   1.485940   2.292780  49.457100  -0.008282  -0.000508  32.938400   0.001606   0.003066  32.815000   1.480930   2.295860  49.265200   0.000251   0.000236  32.810600  -0.002579   0.000054  44.282500  -2.426340  -2.485890  66.502700  -0.000167  -0.000746  44.290800   0.002951  -0.000529   0.458732  14.373500   6.762510   0.079136  -0.027639   3.268970  -0.251998  -2.206820   0.640493   0.000000   0.000000   0.000000   2.924170   8.852190   6.679040  -3.971280   9.524060  -7.737620   1.375940  -5.703100  -4.783320   0.000000   0.000000  -0.000000
  4.395410  89.483800  -2.098910  -3.841400 -12.802500  -5.866180   0.348141   7.417170   0.713143   0.609992  14.838100   1.398210   0.861424  -0.699492   0.007873   1.415790  -1.417660   0.967079  -5.356600  -1.979040   2.681460 -71.328200  18.971700  -4.193600  -0.648140  -0.947131 -19.151200  11.273000  -4.988130   4.217520  42.390400  39.092600 -71.456300 -31.924600   0.000000   0.000067 -10.962300   0.001536   0.000000 -30.736900   5.324780  -8.870400 -25.486500   0.008224   0.000883 -17.840600   0.011863   0.000489 -28.301400  -1.519020   2.818360 -34.549400  -0.000753  -0.001134 -23.009900   0.011087  -0.000801 -27.848300  -1.496710   2.830260 -31.287500  -0.010010   0.000400 -20.837500   0.000515   0.000245 -28.881800  -1.547510   2.802820 -43.379500  -0.004779   0.000774 -28.890800  -0.005992  -0.009943  12.627500   0.116012   8.470890  66.043200   6.899210  -3.369340  -1.893040  -7.741520  14.218300 -13.326900  -0.010108   3.030860 -38.637900  35.381200  66.296600  34.278000  -0.002157  -0.006426  12.139000   0.002762  -0.003122  33.424300  10.977100  16.094600  28.620700  -0.001572   0.000870  20.034500  -0.004399   0.005208  32.877800   1.453330   2.245780  49.359100  -0.008210  -0.000612  32.873100   0.001507   0.002932  32.824500   1.449900   2.247620  49.279100   0.000323   0.000157  32.819800  -0.002764   0.000000  44.265200  -2.420510  -2.481100  66.476400   0.000000  -0.000805  44.273300   0.002791  -0.000559   0.439090  14.393700   6.764610   0.075601  -0.001122   3.268940  -0.242941  -2.214350   0.655535   0.000000   0.000000   0.000000   2.917260   8.867020   6.621570  -3.996310   9.567830  -7.721090   1.392720  -5.717030  -4.733450  -0.000000   0.000000   0.000000
